<?xml version="1.0" encoding="UTF-8" standalone="no"?>
<!-- Created with Inkscape (http://www.inkscape.org/) -->

<svg
   xmlns:dc="http://purl.org/dc/elements/1.1/"
   xmlns:cc="http://creativecommons.org/ns#"
   xmlns:rdf="http://www.w3.org/1999/02/22-rdf-syntax-ns#"
   xmlns:svg="http://www.w3.org/2000/svg"
   xmlns="http://www.w3.org/2000/svg"
   xmlns:sodipodi="http://sodipodi.sourceforge.net/DTD/sodipodi-0.dtd"
   xmlns:inkscape="http://www.inkscape.org/namespaces/inkscape"
   width="228.62155mm"
   height="191.21312mm"
   viewBox="0 0 228.62155 191.21313"
   version="1.1"
   id="svg1564"
   inkscape:version="0.92.2 5c3e80d, 2017-08-06"
   sodipodi:docname="GIF-turntable-12-48.svg">
  <sodipodi:namedview
     id="base"
     pagecolor="#ffffff"
     bordercolor="#666666"
     borderopacity="1.0"
     inkscape:pageopacity="0.0"
     inkscape:pageshadow="2"
     inkscape:zoom="0.82024387"
     inkscape:cx="454.88786"
     inkscape:cy="372.5582"
     inkscape:document-units="mm"
     inkscape:current-layer="svg1564"
     showgrid="false"
     inkscape:window-width="1440"
     inkscape:window-height="878"
     inkscape:window-x="0"
     inkscape:window-y="0"
     inkscape:window-maximized="1"
     inkscape:snap-global="false"
     inkscape:showpageshadow="true"
     borderlayer="false"
     showborder="true" />
  <defs
     id="defs1558" />
  <metadata
     id="metadata1561">
    <rdf:RDF>
      <cc:Work
         rdf:about="">
        <dc:format>image/svg+xml</dc:format>
        <dc:type
           rdf:resource="http://purl.org/dc/dcmitype/StillImage" />
        <dc:title></dc:title>
      </cc:Work>
    </rdf:RDF>
  </metadata>
  <g
     transform="translate(-5.2509806,-5.3673906)"
     inkscape:label="Layer 1"
     inkscape:groupmode="layer"
     id="layer1" />
  <g
     style="stroke:#ff0000;stroke-width:0.25;stroke-miterlimit:4;stroke-dasharray:none;stroke-opacity:1"
     id="g1772"
     inkscape:label="Gear48"
     transform="translate(95.60656,95.60656)">
    <path
       id="path1768"
       style="fill:none;stroke:#ff0000;stroke-width:0.25;stroke-miterlimit:4;stroke-dasharray:none;stroke-opacity:1"
       d="m 87.76452,-3.95369 3.85964,0.95423 3.8574,1.52335 v 2.95222 l -3.8574,1.52335 -3.85964,0.95423 -0.23478,3.58202 3.70208,1.44984 3.62555,2.01381 -0.38534,2.92697 -4.02323,1.00683 -3.95118,0.44227 -0.70031,3.52073 3.48116,1.92066 3.33168,2.46981 -0.7641,2.85163 -4.12022,0.47308 -3.9751,-0.07724 -1.15388,3.3992 3.20069,2.35861 2.9808,2.88355 -1.12977,2.7275 -4.14673,-0.06877 -3.93101,-0.59543 -1.58768,3.21951 2.86544,2.7562 2.57892,3.24796 -1.47611,2.5567 -4.10228,-0.60944 -3.81966,-1.10344 -1.99433,2.98473 2.48117,3.10664 2.13291,3.55679 -1.7972,2.34216 -3.98763,-1.13968 -3.64296,-1.59257 -2.36685,2.69889 2.05444,3.40392 1.65042,3.80476 -2.08754,2.08754 -3.80476,-1.65042 -3.40392,-2.05444 -2.69889,2.36685 1.59257,3.64296 1.13968,3.98763 -2.34216,1.7972 -3.55679,-2.13291 -3.10664,-2.48117 -2.98473,1.99433 1.10344,3.81966 0.60944,4.10228 -2.5567,1.47611 -3.24796,-2.57892 -2.7562,-2.86544 -3.21951,1.58768 0.59543,3.93101 0.06877,4.14673 -2.7275,1.12977 -2.88355,-2.9808 -2.35861,-3.20069 -3.3992,1.15388 0.07724,3.9751 -0.47308,4.12022 -2.85163,0.7641 -2.46981,-3.33168 -1.92066,-3.48116 -3.52073,0.70031 -0.44227,3.95118 -1.00683,4.02323 -2.92697,0.38534 -2.01381,-3.62555 -1.44984,-3.70208 -3.58202,0.23478 -0.95423,3.85964 -1.52335,3.8574 h -2.95222 l -1.52335,-3.8574 -0.95423,-3.85964 -3.58202,-0.23478 -1.44984,3.70208 -2.01381,3.62555 -2.92697,-0.38534 -1.00683,-4.02323 -0.44227,-3.95118 -3.52073,-0.70031 -1.92066,3.48116 -2.46981,3.33168 -2.85163,-0.7641 -0.47308,-4.12022 0.07724,-3.9751 -3.3992,-1.15388 -2.35861,3.20069 -2.88355,2.9808 -2.7275,-1.12977 0.06877,-4.14673 0.59543,-3.93101 -3.21951,-1.58768 -2.7562,2.86544 -3.24796,2.57892 -2.5567,-1.47611 0.60944,-4.10228 1.10344,-3.81966 -2.98473,-1.99433 -3.10664,2.48117 -3.55679,2.13291 -2.34216,-1.7972 1.13968,-3.98763 1.59257,-3.64296 -2.69889,-2.36685 -3.40392,2.05444 -3.80476,1.65042 -2.08754,-2.08754 1.65042,-3.80476 2.05444,-3.40392 -2.36685,-2.69889 -3.64296,1.59257 -3.98763,1.13968 -1.7972,-2.34216 2.13291,-3.55679 2.48117,-3.10664 -1.99433,-2.98473 -3.81966,1.10344 -4.10228,0.60944 -1.47611,-2.5567 2.57892,-3.24796 2.86544,-2.7562 -1.58768,-3.21951 -3.93101,0.59543 -4.14673,0.06877 -1.12977,-2.7275 2.9808,-2.88355 3.20069,-2.35861 -1.15388,-3.3992 -3.9751,0.07724 -4.12022,-0.47308 -0.7641,-2.85163 3.33168,-2.46981 3.48116,-1.92066 -0.70031,-3.52073 -3.95118,-0.44227 -4.02323,-1.00683 -0.38534,-2.92697 3.62555,-2.01381 3.70208,-1.44984 -0.23478,-3.58202 -3.85964,-0.95423 -3.8574,-1.52335 v -2.95222 l 3.8574,-1.52335 3.85964,-0.95423 0.23478,-3.58202 -3.70208,-1.44984 -3.62555,-2.01381 0.38534,-2.92697 4.02323,-1.00683 3.95118,-0.44227 0.70031,-3.52073 -3.48116,-1.92066 -3.33168,-2.46981 0.7641,-2.85163 4.12022,-0.47308 3.9751,0.07724 1.15388,-3.3992 -3.20069,-2.35861 -2.9808,-2.88355 1.12977,-2.7275 4.14673,0.06877 3.93101,0.59543 1.58768,-3.21951 -2.86544,-2.7562 -2.57892,-3.24796 1.47611,-2.5567 4.10228,0.60944 3.81966,1.10344 1.99433,-2.98473 -2.48117,-3.10664 -2.13291,-3.55679 1.7972,-2.34216 3.98763,1.13968 3.64296,1.59257 2.36685,-2.69889 -2.05444,-3.40392 -1.65042,-3.80476 2.08754,-2.08754 3.80476,1.65042 3.40392,2.05444 2.69889,-2.36685 -1.59257,-3.64296 -1.13968,-3.98763 2.34216,-1.7972 3.55679,2.13291 3.10664,2.48117 2.98473,-1.99433 -1.10344,-3.81966 -0.60944,-4.10228 2.5567,-1.47611 3.24796,2.57892 2.7562,2.86544 3.21951,-1.58768 -0.59543,-3.93101 -0.06877,-4.14673 2.7275,-1.12977 2.88355,2.9808 2.35861,3.20069 3.3992,-1.15388 -0.07724,-3.9751 0.47308,-4.12022 2.85163,-0.7641 2.46981,3.33168 1.92066,3.48116 3.52073,-0.70031 0.44227,-3.95118 1.00683,-4.02323 2.92697,-0.38534 2.01381,3.62555 1.44984,3.70208 3.58202,-0.23478 0.95423,-3.85964 1.52335,-3.8574 h 2.95222 l 1.52335,3.8574 0.95423,3.85964 3.58202,0.23478 1.44984,-3.70208 2.01381,-3.62555 2.92697,0.38534 1.00683,4.02323 0.44227,3.95118 3.52073,0.70031 1.92066,-3.48116 2.46981,-3.33168 2.85163,0.7641 0.47308,4.12022 -0.07724,3.9751 3.3992,1.15388 2.35861,-3.20069 2.88355,-2.9808 2.7275,1.12977 -0.06877,4.14673 -0.59543,3.93101 3.21951,1.58768 2.7562,-2.86544 3.24796,-2.57892 2.5567,1.47611 -0.60944,4.10228 -1.10344,3.81966 2.98473,1.99433 3.10664,-2.48117 3.55679,-2.13291 2.34216,1.7972 -1.13968,3.98763 -1.59257,3.64296 2.69889,2.36685 3.40392,-2.05444 3.80476,-1.65042 2.08754,2.08754 -1.65042,3.80476 -2.05444,3.40392 2.36685,2.69889 3.64296,-1.59257 3.98763,-1.13968 1.7972,2.34216 -2.13291,3.55679 -2.48117,3.10664 1.99433,2.98473 3.81966,-1.10344 4.10228,-0.60944 1.47611,2.5567 -2.57892,3.24796 -2.86544,2.7562 1.58768,3.21951 3.93101,-0.59543 4.14673,-0.06877 1.12977,2.7275 -2.9808,2.88355 -3.20069,2.35861 1.15388,3.3992 3.9751,-0.07724 4.12022,0.47308 0.7641,2.85163 -3.33168,2.46981 -3.48116,1.92066 0.70031,3.52073 3.95118,0.44227 4.02323,1.00683 0.38534,2.92697 -3.62555,2.01381 -3.70208,1.44984 z"
       inkscape:connector-curvature="0" />
    <circle
       id="path1770"
       style="fill:none;stroke:#ff0000;stroke-width:0.25;stroke-miterlimit:4;stroke-dasharray:none;stroke-opacity:1"
       cx="0"
       cy="0"
       r="3" />
  </g>
  <g
     style="stroke:#ff0000;stroke-width:0.25;stroke-miterlimit:4;stroke-dasharray:none;stroke-opacity:1"
     transform="translate(196.55005,29.946973)"
     inkscape:label="Gear12"
     id="g2154">
    <path
       inkscape:connector-curvature="0"
       d="m 18.89595,-2.7748 2.41171,-0.35415 1.41458,0.13751 3.9895,1.806 v 2.37088 l -3.9895,1.806 -1.41458,0.13751 -2.41171,-0.35415 -1.14418,4.27013 2.26568,0.89915 1.15631,0.82638 2.552,3.55879 -1.18544,2.05324 -4.358,-0.43071 -1.29382,-0.5882 -1.91153,-1.51256 -3.12595,3.12595 1.51256,1.91153 0.5882,1.29382 0.43071,4.358 -2.05324,1.18544 -3.55879,-2.552 -0.82638,-1.15631 -0.89915,-2.26568 -4.27013,1.14418 0.35415,2.41171 -0.13751,1.41458 -1.806,3.9895 h -2.37088 l -1.806,-3.9895 -0.13751,-1.41458 0.35415,-2.41171 -4.27013,-1.14418 -0.89915,2.26568 -0.82638,1.15631 -3.55879,2.552 -2.05324,-1.18544 0.43071,-4.358 0.5882,-1.29382 1.51256,-1.91153 -3.12595,-3.12595 -1.91153,1.51256 -1.29382,0.5882 -4.358,0.43071 -1.18544,-2.05324 2.552,-3.55879 1.15631,-0.82638 2.26568,-0.89915 -1.14418,-4.27013 -2.41171,0.35415 -1.41458,-0.13751 -3.9895,-1.806 v -2.37088 l 3.9895,-1.806 1.41458,-0.13751 2.41171,0.35415 1.14418,-4.27013 -2.26568,-0.89915 -1.15631,-0.82638 -2.552,-3.55879 1.18544,-2.05324 4.358,0.43071 1.29382,0.5882 1.91153,1.51256 3.12595,-3.12595 -1.51256,-1.91153 -0.5882,-1.29382 -0.43071,-4.358 2.05324,-1.18544 3.55879,2.552 0.82638,1.15631 0.89915,2.26568 4.27013,-1.14418 -0.35415,-2.41171 0.13751,-1.41458 1.806,-3.9895 h 2.37088 l 1.806,3.9895 0.13751,1.41458 -0.35415,2.41171 4.27013,1.14418 0.89915,-2.26568 0.82638,-1.15631 3.55879,-2.552 2.05324,1.18544 -0.43071,4.358 -0.5882,1.29382 -1.51256,1.91153 3.12595,3.12595 1.91153,-1.51256 1.29382,-0.5882 4.358,-0.43071 1.18544,2.05324 -2.552,3.55879 -1.15631,0.82638 -2.26568,0.89915 z"
       style="fill:none;stroke:#ff0000;stroke-width:0.25;stroke-miterlimit:4;stroke-dasharray:none;stroke-opacity:1"
       id="path2150" />
    <circle
       r="3"
       cy="0"
       cx="0"
       style="fill:none;stroke:#ff0000;stroke-width:0.25;stroke-miterlimit:4;stroke-dasharray:none;stroke-opacity:1"
       id="path2152" />
  </g>
  <text
     id="text2186"
     y="19.097759"
     x="185.8399"
     style="font-style:normal;font-weight:normal;font-size:10.58333302px;line-height:1.25;font-family:sans-serif;letter-spacing:0px;word-spacing:0px;fill:#000000;fill-opacity:1;stroke:#000000;stroke-width:0.26499999;stroke-miterlimit:4;stroke-dasharray:none;stroke-opacity:1"
     xml:space="preserve"><tspan
       style="font-size:4.23333311px;stroke:#000000;stroke-width:0.26499999;stroke-miterlimit:4;stroke-dasharray:none;stroke-opacity:1"
       y="19.097759"
       x="185.8399"
       id="tspan2184"
       sodipodi:role="line">12t12p6d</tspan></text>
  <text
     id="text2194"
     y="15.71324"
     x="86.178658"
     style="font-style:normal;font-weight:normal;font-size:10.58333302px;line-height:1.25;font-family:sans-serif;letter-spacing:0px;word-spacing:0px;fill:#000000;fill-opacity:1;stroke:#000000;stroke-width:0.26458332;stroke-opacity:1"
     xml:space="preserve"><tspan
       style="font-size:4.23333311px;stroke:#000000;stroke-width:0.26458332;stroke-opacity:1"
       y="15.71324"
       x="86.178658"
       id="tspan2192"
       sodipodi:role="line">48t12p6d</tspan></text>
  <g
     id="g9034"
     inkscape:label="Gear12"
     transform="translate(196.80404,161.6697)"
     style="stroke:#ff0000;stroke-width:0.25;stroke-miterlimit:4;stroke-dasharray:none;stroke-opacity:1">
    <path
       id="path9030"
       style="fill:none;stroke:#ff0000;stroke-width:0.25;stroke-miterlimit:4;stroke-dasharray:none;stroke-opacity:1"
       d="m 18.89595,-2.7748 2.41171,-0.35415 1.41458,0.13751 3.9895,1.806 v 2.37088 l -3.9895,1.806 -1.41458,0.13751 -2.41171,-0.35415 -1.14418,4.27013 2.26568,0.89915 1.15631,0.82638 2.552,3.55879 -1.18544,2.05324 -4.358,-0.43071 -1.29382,-0.5882 -1.91153,-1.51256 -3.12595,3.12595 1.51256,1.91153 0.5882,1.29382 0.43071,4.358 -2.05324,1.18544 -3.55879,-2.552 -0.82638,-1.15631 -0.89915,-2.26568 -4.27013,1.14418 0.35415,2.41171 -0.13751,1.41458 -1.806,3.9895 h -2.37088 l -1.806,-3.9895 -0.13751,-1.41458 0.35415,-2.41171 -4.27013,-1.14418 -0.89915,2.26568 -0.82638,1.15631 -3.55879,2.552 -2.05324,-1.18544 0.43071,-4.358 0.5882,-1.29382 1.51256,-1.91153 -3.12595,-3.12595 -1.91153,1.51256 -1.29382,0.5882 -4.358,0.43071 -1.18544,-2.05324 2.552,-3.55879 1.15631,-0.82638 2.26568,-0.89915 -1.14418,-4.27013 -2.41171,0.35415 -1.41458,-0.13751 -3.9895,-1.806 v -2.37088 l 3.9895,-1.806 1.41458,-0.13751 2.41171,0.35415 1.14418,-4.27013 -2.26568,-0.89915 -1.15631,-0.82638 -2.552,-3.55879 1.18544,-2.05324 4.358,0.43071 1.29382,0.5882 1.91153,1.51256 3.12595,-3.12595 -1.51256,-1.91153 -0.5882,-1.29382 -0.43071,-4.358 2.05324,-1.18544 3.55879,2.552 0.82638,1.15631 0.89915,2.26568 4.27013,-1.14418 -0.35415,-2.41171 0.13751,-1.41458 1.806,-3.9895 h 2.37088 l 1.806,3.9895 0.13751,1.41458 -0.35415,2.41171 4.27013,1.14418 0.89915,-2.26568 0.82638,-1.15631 3.55879,-2.552 2.05324,1.18544 -0.43071,4.358 -0.5882,1.29382 -1.51256,1.91153 3.12595,3.12595 1.91153,-1.51256 1.29382,-0.5882 4.358,-0.43071 1.18544,2.05324 -2.552,3.55879 -1.15631,0.82638 -2.26568,0.89915 z"
       inkscape:connector-curvature="0" />
    <circle
       id="path9032"
       style="fill:none;stroke:#ff0000;stroke-width:0.25;stroke-miterlimit:4;stroke-dasharray:none;stroke-opacity:1"
       cx="0"
       cy="0"
       r="3" />
  </g>
  <text
     xml:space="preserve"
     style="font-style:normal;font-weight:normal;font-size:10.58333302px;line-height:1.25;font-family:sans-serif;letter-spacing:0px;word-spacing:0px;fill:#000000;fill-opacity:1;stroke:none;stroke-width:0.26499999;stroke-miterlimit:4;stroke-dasharray:none"
     x="204.91103"
     y="69.879608"
     id="text9055"><tspan
       sodipodi:role="line"
       id="tspan9053"
       x="204.91103"
       y="79.535103"
       style="font-style:normal;font-variant:normal;font-weight:bold;font-stretch:normal;font-size:4.23333311px;font-family:sans-serif;-inkscape-font-specification:'sans-serif Bold';stroke-width:0.26499999;stroke-miterlimit:4;stroke-dasharray:none" /></text>
  <text
     xml:space="preserve"
     style="font-style:normal;font-weight:normal;font-size:10.58333302px;line-height:1.25;font-family:sans-serif;letter-spacing:0px;word-spacing:0px;fill:#000000;fill-opacity:1;stroke:#000000;stroke-width:0.26499999;stroke-miterlimit:4;stroke-dasharray:none;stroke-opacity:1"
     x="186.16246"
     y="150.05983"
     id="text9080"><tspan
       sodipodi:role="line"
       id="tspan9078"
       x="186.16246"
       y="150.05983"
       style="font-size:4.23333311px;stroke:#000000;stroke-width:0.26499999;stroke-miterlimit:4;stroke-dasharray:none;stroke-opacity:1">12t12p6d</tspan></text>
  <g
     style="fill:none;stroke-linecap:round;stroke-linejoin:round"
     id="g9201"
     transform="rotate(90,82.60549,130.89106)">
    <g
       id="g9178"
       transform="scale(1,-1)">
      <!-- Line -->
      <path
         id="path9154"
         style="stroke:#ff0000;stroke-width:0.25"
         d="m 7.5,0 h 75"
         inkscape:connector-curvature="0" />
      <!-- Line -->
      <path
         id="path9156"
         style="stroke:#ff0000;stroke-width:0.25"
         d="m 90,7.5 v 0"
         inkscape:connector-curvature="0" />
      <!-- Line -->
      <path
         id="path9158"
         style="stroke:#ff0000;stroke-width:0.25"
         d="M 82.5,15 H 7.5"
         inkscape:connector-curvature="0" />
      <!-- Line -->
      <path
         id="path9160"
         style="stroke:#ff0000;stroke-width:0.25"
         d="m 0,7.5 v 0"
         inkscape:connector-curvature="0" />
      <!-- Arc -->
      <path
         id="path9162"
         style="stroke:#ff0000;stroke-width:0.25"
         d="M 7.5,15 A 7.5,7.5 0 0 1 0,7.5"
         inkscape:connector-curvature="0" />
      <!-- Arc -->
      <path
         id="path9164"
         style="stroke:#ff0000;stroke-width:0.25"
         d="M 7.5,0 A 7.5,7.5 0 0 0 0,7.5"
         inkscape:connector-curvature="0" />
      <!-- Arc -->
      <path
         id="path9166"
         style="stroke:#ff0000;stroke-width:0.25"
         d="M 82.5,15 A 7.5,7.5 0 0 0 90,7.5"
         inkscape:connector-curvature="0" />
      <!-- Arc -->
      <path
         id="path9168"
         style="stroke:#ff0000;stroke-width:0.25"
         d="M 82.5,0 A 7.5,7.5 0 0 1 90,7.5"
         inkscape:connector-curvature="0" />
      <!-- Circle -->
      <circle
         id="circle9170"
         style="stroke:#ff0000;stroke-width:0.25"
         r="3"
         cy="7.5"
         cx="7.5" />
      <!-- Circle -->
      <circle
         id="circle9172"
         style="stroke:#ff0000;stroke-width:0.25"
         r="3"
         cy="7.5"
         cx="82.5" />
      <!-- Text: 360° GIF Turntable -->
      <g
         id="g9176">
        <path
           id="path9174"
           style="fill:#000000;fill-rule:evenodd"
           d="m 21.8885,7.9011 c 0.1619,0 0.3013,0.0474 0.4183,0.1424 0.1169,0.095 0.1754,0.2313 0.1754,0.409 0,0.1355 -0.0466,0.252 -0.1398,0.3496 -0.0933,0.0976 -0.219,0.1464 -0.3773,0.1464 -0.1073,0 -0.1957,-0.0149 -0.2652,-0.0448 C 21.6304,8.8738 21.5754,8.8342 21.535,8.785 21.4945,8.7357 21.4563,8.6724 21.4202,8.595 21.3842,8.5176 21.3512,8.4446 21.3213,8.376 21.3037,8.3391 21.272,8.31 21.2263,8.2889 21.1805,8.2678 21.1278,8.2573 21.068,8.2573 c -0.0704,0 -0.135,0.0285 -0.194,0.0857 -0.0589,0.0572 -0.0884,0.1333 -0.0884,0.2282 0,0.0915 0.0278,0.1878 0.0832,0.289 0.0554,0.1011 0.1363,0.1974 0.2427,0.2889 0.1064,0.0914 0.2388,0.1649 0.3971,0.2203 0.1583,0.0554 0.3351,0.0831 0.5303,0.0831 0.1707,0 0.3263,-0.0233 0.4671,-0.0699 0.1407,-0.0466 0.2629,-0.1139 0.3667,-0.2019 0.1038,-0.0879 0.1821,-0.1899 0.2348,-0.306 0.0528,-0.1161 0.0792,-0.241 0.0792,-0.3747 0,-0.1759 -0.0383,-0.3267 -0.1148,-0.4525 C 22.9954,7.9217 22.8859,7.799 22.7434,7.6794 22.8806,7.6055 22.9963,7.5211 23.0904,7.4261 23.1845,7.3311 23.2553,7.226 23.3028,7.1108 23.3503,6.9956 23.374,6.8712 23.374,6.7375 23.374,6.5774 23.3419,6.4226 23.2777,6.2731 23.2135,6.1236 23.119,5.9903 22.9941,5.8734 22.8692,5.7564 22.721,5.6649 22.5495,5.5989 22.378,5.533 22.1885,5.5 21.9809,5.5 c -0.2111,0 -0.4002,0.0378 -0.5673,0.1135 -0.1671,0.0756 -0.3047,0.1701 -0.4129,0.2836 -0.1082,0.1135 -0.19,0.2309 -0.2454,0.3522 -0.0554,0.1214 -0.0831,0.2217 -0.0831,0.3008 0,0.1021 0.033,0.1843 0.0989,0.2467 0.066,0.0625 0.1482,0.0937 0.2467,0.0937 0.0493,0 0.0968,-0.0145 0.1425,-0.0435 0.0458,-0.0291 0.0757,-0.0638 0.0897,-0.1043 0.0915,-0.2445 0.1896,-0.4261 0.2942,-0.5448 0.1047,-0.1187 0.252,-0.1781 0.442,-0.1781 0.109,0 0.2141,0.0268 0.3153,0.0805 0.1011,0.0536 0.1847,0.1332 0.2506,0.2388 0.066,0.1055 0.099,0.2277 0.099,0.3667 0,0.2058 -0.0563,0.3672 -0.1689,0.4842 -0.1126,0.1169 -0.2691,0.1754 -0.4696,0.1754 -0.0352,0 -0.0898,-0.0035 -0.1636,-0.0105 -0.0739,-0.0071 -0.1214,-0.0106 -0.1425,-0.0106 -0.0968,0 -0.1715,0.0242 -0.2243,0.0726 -0.0528,0.0484 -0.0791,0.1156 -0.0791,0.2018 0,0.0845 0.0316,0.1526 0.0949,0.2045 0.0634,0.0519 0.1575,0.0779 0.2824,0.0779 z m 2.7097,-0.2428 c 0.1196,0.1425 0.2498,0.248 0.3905,0.3166 0.1407,0.0686 0.2982,0.1029 0.4723,0.1029 0.1671,0 0.3215,-0.0312 0.4631,-0.0936 0.1416,-0.0625 0.2656,-0.1513 0.372,-0.2665 0.1064,-0.1152 0.1886,-0.2511 0.2467,-0.4077 0.058,-0.1565 0.0871,-0.3201 0.0871,-0.4907 0,-0.2481 -0.0568,-0.4732 -0.1702,-0.6755 C 26.3462,5.9415 26.1879,5.7836 25.9847,5.6702 25.7816,5.5567 25.5516,5.5 25.2948,5.5 c -0.2955,0 -0.5506,0.0721 -0.7652,0.2164 -0.2146,0.1442 -0.3786,0.3575 -0.4921,0.6398 -0.1134,0.2823 -0.1702,0.6275 -0.1702,1.0356 0,0.3325 0.0343,0.6297 0.1029,0.8918 0.0686,0.2621 0.1671,0.4794 0.2956,0.6518 0.1284,0.1723 0.284,0.3025 0.467,0.3905 0.1829,0.0879 0.3914,0.1319 0.6253,0.1319 0.2252,0 0.4235,-0.044 0.595,-0.1319 0.1715,-0.088 0.3008,-0.1971 0.3878,-0.3272 0.0871,-0.1302 0.1307,-0.2551 0.1307,-0.3747 0,-0.0721 -0.0273,-0.1376 -0.0818,-0.1966 -0.0546,-0.0589 -0.124,-0.0883 -0.2085,-0.0883 -0.0739,0 -0.1425,0.0233 -0.2058,0.0699 -0.0633,0.0466 -0.1099,0.1112 -0.1398,0.1939 -0.0405,0.1055 -0.1047,0.1904 -0.1926,0.2546 -0.088,0.0642 -0.19,0.0963 -0.3061,0.0963 -0.0932,0 -0.186,-0.0268 -0.2784,-0.0804 C 24.9663,8.8197 24.8884,8.7471 24.8251,8.6557 24.6967,8.4692 24.6211,8.1368 24.5982,7.6583 m 0.7124,-1.6385 c 0.1777,0 0.3245,0.0725 0.4406,0.2177 0.1161,0.1451 0.1742,0.3355 0.1742,0.5712 0,0.1601 -0.0273,0.2977 -0.0818,0.4129 -0.0545,0.1153 -0.1293,0.2032 -0.2243,0.2639 -0.095,0.0607 -0.1996,0.091 -0.314,0.091 -0.109,0 -0.2133,-0.029 -0.3126,-0.0871 -0.0994,-0.058 -0.1795,-0.142 -0.2401,-0.2519 -0.0607,-0.11 -0.0911,-0.2388 -0.0911,-0.3866 0,-0.2374 0.0616,-0.4353 0.1847,-0.5936 0.1232,-0.1584 0.278,-0.2375 0.4644,-0.2375 m 4.4748,1.4433 C 29.7854,7.1746 29.7678,6.9266 29.7327,6.719 29.6975,6.5114 29.6324,6.3232 29.5374,6.1544 29.4178,5.9468 29.263,5.7867 29.073,5.6741 28.8831,5.5616 28.672,5.5053 28.4398,5.5053 c -0.2674,0 -0.507,0.0756 -0.719,0.2269 -0.212,0.1513 -0.3716,0.3606 -0.4789,0.628 -0.0545,0.146 -0.0945,0.3073 -0.1201,0.4841 -0.0255,0.1768 -0.0382,0.3681 -0.0382,0.5739 0,0.2656 0.0141,0.5048 0.0422,0.7177 0.0281,0.2128 0.0721,0.3958 0.1319,0.5488 0.1038,0.2533 0.2546,0.4463 0.4525,0.5792 0.1979,0.1328 0.4341,0.1992 0.7085,0.1992 0.1812,0 0.3456,-0.0295 0.4934,-0.0884 0.1477,-0.059 0.2775,-0.1451 0.3892,-0.2586 0.1117,-0.1135 0.2062,-0.2537 0.2836,-0.4208 0.1337,-0.2903 0.2005,-0.701 0.2005,-1.2322 m -0.7229,0.0527 c 0,0.3219 -0.0194,0.5853 -0.0581,0.7903 -0.0387,0.2049 -0.1037,0.3597 -0.1952,0.4643 -0.0915,0.1047 -0.2181,0.157 -0.38,0.157 -0.2322,0 -0.3935,-0.1169 -0.4841,-0.3509 -0.0906,-0.2339 -0.1359,-0.5945 -0.1359,-1.0818 0,-0.3307 0.0193,-0.6016 0.058,-0.8126 0.0387,-0.2111 0.1038,-0.3708 0.1953,-0.4789 0.0914,-0.1082 0.2155,-0.1623 0.372,-0.1623 0.1618,0 0.2885,0.0563 0.38,0.1689 0.0914,0.1125 0.1556,0.2735 0.1926,0.4828 0.0369,0.2093 0.0554,0.4837 0.0554,0.8232 m 1.2057,1.1399 c 0,0.1161 0.0228,0.2269 0.0686,0.3324 0.0457,0.1056 0.1068,0.1957 0.1834,0.2705 0.0765,0.0747 0.1657,0.1337 0.2678,0.1768 C 30.89,9.4785 30.9982,9.5 31.1125,9.5 31.262,9.5 31.4019,9.4626 31.532,9.3879 31.6622,9.3131 31.7651,9.2106 31.8407,9.0805 31.9164,8.9503 31.9542,8.8087 31.9542,8.6557 31.9542,8.5044 31.9164,8.3641 31.8407,8.2348 31.7651,8.1055 31.6631,8.004 31.5347,7.9301 31.4063,7.8562 31.2655,7.8193 31.1125,7.8193 c -0.2322,0 -0.431,0.0818 -0.5963,0.2453 -0.1653,0.1636 -0.248,0.3606 -0.248,0.5911 m 0.438,0 c 0,-0.1108 0.0404,-0.205 0.1213,-0.2823 0.081,-0.0774 0.1759,-0.1161 0.285,-0.1161 0.1091,0 0.2027,0.0382 0.281,0.1147 0.0783,0.0765 0.1174,0.1711 0.1174,0.2837 0,0.0756 -0.018,0.1442 -0.0541,0.2058 -0.036,0.0615 -0.0853,0.1104 -0.1477,0.1464 -0.0625,0.0361 -0.128,0.0541 -0.1966,0.0541 -0.1108,0 -0.2062,-0.04 -0.2863,-0.12 -0.08,-0.0801 -0.12,-0.1755 -0.12,-0.2863 M 37.4869,7.1385 V 6.3971 c 0,-0.0985 -0.0097,-0.1772 -0.0291,-0.2362 C 37.4385,6.102 37.4029,6.0488 37.351,6.0013 37.2991,5.9538 37.2327,5.9081 37.1518,5.8641 36.9178,5.7375 36.6927,5.6451 36.4763,5.5871 36.2599,5.529 36.0242,5.5 35.7692,5.5 35.4719,5.5 35.201,5.5457 34.9565,5.6372 34.712,5.7287 34.5036,5.8615 34.3312,6.0356 34.1588,6.2098 34.0264,6.4208 33.9341,6.6689 33.8417,6.9169 33.7956,7.1939 33.7956,7.5 c 0,0.3008 0.0448,0.5761 0.1345,0.8259 0.0897,0.2497 0.2217,0.4617 0.3958,0.6358 0.1742,0.1742 0.3861,0.3074 0.6359,0.3998 0.2498,0.0923 0.533,0.1385 0.8496,0.1385 0.2603,0 0.4908,-0.0347 0.6913,-0.1042 0.2005,-0.0695 0.3632,-0.157 0.4881,-0.2626 0.1249,-0.1055 0.219,-0.2172 0.2823,-0.335 0.0634,-0.1179 0.095,-0.2226 0.095,-0.314 0,-0.0985 -0.0365,-0.1825 -0.1095,-0.252 -0.073,-0.0695 -0.1605,-0.1042 -0.2625,-0.1042 -0.0563,0 -0.1104,0.0132 -0.1623,0.0395 -0.0519,0.0264 -0.0954,0.0634 -0.1306,0.1109 -0.0967,0.1512 -0.1785,0.2656 -0.2454,0.343 -0.0668,0.0774 -0.157,0.1425 -0.2704,0.1952 -0.1135,0.0528 -0.2581,0.0792 -0.434,0.0792 -0.1812,0 -0.3431,-0.0312 -0.4855,-0.0937 C 35.1254,8.7397 35.0036,8.6491 34.9024,8.5303 34.8013,8.4116 34.7239,8.2661 34.6702,8.0937 34.6166,7.9213 34.5898,7.7304 34.5898,7.5211 c 0,-0.4538 0.1042,-0.803 0.3126,-1.0475 0.2085,-0.2445 0.4991,-0.3667 0.8721,-0.3667 0.1811,0 0.3513,0.0237 0.5105,0.0712 0.1592,0.0475 0.3206,0.1152 0.4842,0.2032 v 0.6279 h -0.6069 c -0.146,0 -0.2564,0.022 -0.3311,0.066 -0.0748,0.044 -0.1121,0.1187 -0.1121,0.2243 0,0.0862 0.0312,0.1574 0.0936,0.2137 0.0625,0.0563 0.1473,0.0844 0.2546,0.0844 h 0.8892 c 0.1091,0 0.2014,-0.0096 0.2771,-0.029 0.0756,-0.0193 0.1367,-0.0624 0.1833,-0.1293 0.0467,-0.0668 0.07,-0.1671 0.07,-0.3008 m 0.7777,-1.1609 v 3.0475 c 0,0.1583 0.0361,0.277 0.1082,0.3562 0.0721,0.0791 0.1653,0.1187 0.2797,0.1187 0.1178,0 0.2132,-0.0391 0.2862,-0.1174 0.073,-0.0783 0.1095,-0.1975 0.1095,-0.3575 V 5.9776 c 0,-0.1601 -0.0365,-0.2797 -0.1095,-0.3589 C 38.8657,5.5396 38.7703,5.5 38.6525,5.5 c -0.1126,0 -0.2054,0.04 -0.2784,0.1201 -0.073,0.08 -0.1095,0.1992 -0.1095,0.3575 m 3.9709,2.8522 H 40.6919 V 7.8404 h 1.2903 c 0.1196,0 0.2088,-0.0269 0.2678,-0.0805 0.0589,-0.0537 0.0884,-0.1253 0.0884,-0.215 0,-0.0898 -0.0299,-0.161 -0.0897,-0.2138 C 42.1888,7.2784 42.1,7.252 41.9822,7.252 H 40.6919 V 5.9776 c 0,-0.1619 -0.0365,-0.2819 -0.1095,-0.3602 C 40.5094,5.5391 40.4158,5.5 40.3014,5.5 c -0.1161,0 -0.2106,0.0396 -0.2836,0.1187 -0.073,0.0792 -0.1095,0.1988 -0.1095,0.3589 v 2.9762 c 0,0.1126 0.0167,0.2045 0.0501,0.2758 0.0334,0.0712 0.0858,0.1231 0.157,0.1556 0.0712,0.0326 0.1623,0.0488 0.2731,0.0488 h 1.847 c 0.1249,0 0.2176,-0.0277 0.2783,-0.0831 0.0607,-0.0554 0.0911,-0.1279 0.0911,-0.2177 0,-0.0914 -0.0304,-0.1649 -0.0911,-0.2203 C 42.4531,8.8575 42.3604,8.8298 42.2355,8.8298 m 4.8147,-0.0422 h -0.8548 v -2.81 c 0,-0.1619 -0.0361,-0.2819 -0.1082,-0.3602 C 46.0151,5.5391 45.9218,5.5 45.8075,5.5 c -0.1161,0 -0.2106,0.0396 -0.2836,0.1187 -0.073,0.0792 -0.1095,0.1988 -0.1095,0.3589 v 2.81 h -0.8549 c -0.1337,0 -0.2331,0.0295 -0.2982,0.0884 -0.0651,0.0589 -0.0976,0.1368 -0.0976,0.2335 0,0.1003 0.0339,0.1794 0.1016,0.2375 0.0677,0.058 0.1658,0.087 0.2942,0.087 h 2.4907 c 0.1355,0 0.2362,-0.0299 0.3021,-0.0897 0.066,-0.0598 0.099,-0.1381 0.099,-0.2348 0,-0.0967 -0.0334,-0.1746 -0.1003,-0.2335 C 47.2842,8.8171 47.1839,8.7876 47.0502,8.7876 M 49.7363,5.9063 V 5.9987 C 49.6501,5.8896 49.5595,5.7982 49.4645,5.7243 49.3695,5.6504 49.2657,5.5954 49.1531,5.5594 49.0406,5.5233 48.9122,5.5053 48.7679,5.5053 c -0.1741,0 -0.3302,0.036 -0.4683,0.1082 -0.1381,0.0721 -0.245,0.1715 -0.3206,0.2981 -0.0897,0.153 -0.1346,0.3729 -0.1346,0.6596 v 1.4275 c 0,0.1442 0.0326,0.252 0.0977,0.3232 0.065,0.0712 0.1512,0.1069 0.2585,0.1069 0.1091,0 0.197,-0.0361 0.2639,-0.1082 0.0668,-0.0721 0.1002,-0.1794 0.1002,-0.3219 V 6.8456 c 0,-0.1671 0.0141,-0.3073 0.0423,-0.4208 0.0281,-0.1135 0.0787,-0.2023 0.1517,-0.2665 0.073,-0.0642 0.1719,-0.0963 0.2968,-0.0963 0.1214,0 0.2357,0.0361 0.343,0.1082 0.1073,0.0721 0.1856,0.1662 0.2349,0.2823 0.0404,0.102 0.0606,0.3254 0.0606,0.6702 v 0.876 c 0,0.1425 0.0335,0.2498 0.1003,0.3219 0.0668,0.0721 0.1539,0.1082 0.2612,0.1082 0.1073,0 0.1935,-0.0357 0.2586,-0.1069 0.0651,-0.0712 0.0976,-0.179 0.0976,-0.3232 V 5.9116 C 50.4117,5.7744 50.3805,5.6715 50.318,5.6029 50.2556,5.5343 50.1751,5.5 50.0766,5.5 c -0.0985,0 -0.1798,0.0356 -0.244,0.1069 -0.0642,0.0712 -0.0963,0.171 -0.0963,0.2994 m 2.1076,0.6333 V 5.938 C 51.8439,5.792 51.8096,5.6825 51.741,5.6095 51.6724,5.5365 51.5853,5.5 51.4798,5.5 51.376,5.5 51.2907,5.5369 51.2239,5.6108 51.157,5.6847 51.1236,5.7938 51.1236,5.938 v 2.0053 c 0,0.3236 0.117,0.4855 0.3509,0.4855 0.1196,0 0.2058,-0.0379 0.2586,-0.1135 0.0528,-0.0756 0.0818,-0.1873 0.0871,-0.3351 0.0862,0.1478 0.1745,0.2595 0.2651,0.3351 0.0906,0.0756 0.2116,0.1135 0.3628,0.1135 0.1513,0 0.2982,-0.0379 0.4407,-0.1135 0.1424,-0.0756 0.2137,-0.1759 0.2137,-0.3008 0,-0.0879 -0.0304,-0.1605 -0.091,-0.2177 -0.0607,-0.0571 -0.1263,-0.0857 -0.1966,-0.0857 -0.0264,0 -0.0902,0.0163 -0.1913,0.0488 -0.1012,0.0325 -0.1904,0.0488 -0.2678,0.0488 -0.1056,0 -0.1918,-0.0277 -0.2586,-0.0831 C 52.0304,7.6702 51.9785,7.588 51.9415,7.4789 51.9046,7.3698 51.8791,7.2401 51.865,7.0897 51.8509,6.9393 51.8439,6.7559 51.8439,6.5396 m 2.306,1.4907 v -0.087 c 0.1266,0.1671 0.2651,0.2898 0.4155,0.368 0.1504,0.0783 0.3233,0.1175 0.5185,0.1175 0.19,0 0.3597,-0.0414 0.5092,-0.1241 0.1496,-0.0826 0.2613,-0.1996 0.3351,-0.3509 0.0475,-0.0879 0.0783,-0.1829 0.0924,-0.2849 0.0141,-0.1021 0.0211,-0.2322 0.0211,-0.3905 V 5.938 c 0,-0.1442 -0.033,-0.2533 -0.099,-0.3272 C 55.8768,5.5369 55.791,5.5 55.6855,5.5 55.5782,5.5 55.4911,5.5378 55.4243,5.6135 55.3574,5.6891 55.324,5.7973 55.324,5.938 v 1.2005 c 0,0.2375 -0.033,0.4191 -0.0989,0.5449 -0.066,0.1257 -0.1975,0.1886 -0.3945,0.1886 -0.1284,0 -0.2454,-0.0382 -0.3509,-0.1147 C 54.3741,7.6807 54.2967,7.5756 54.2475,7.442 54.2123,7.3347 54.1947,7.1341 54.1947,6.8404 V 5.938 c 0,-0.146 -0.0338,-0.2555 -0.1016,-0.3285 C 54.0254,5.5365 53.9379,5.5 53.8306,5.5 53.7268,5.5 53.6415,5.5378 53.5747,5.6135 53.5078,5.6891 53.4744,5.7973 53.4744,5.938 v 2.0818 c 0,0.1372 0.0299,0.2397 0.0897,0.3074 0.0598,0.0677 0.1416,0.1016 0.2454,0.1016 0.0633,0 0.1205,-0.015 0.1715,-0.0449 0.051,-0.0299 0.0919,-0.0748 0.1227,-0.1346 0.0308,-0.0598 0.0462,-0.1328 0.0462,-0.219 m 2.6485,0.3351 h 0.0792 v 0.4328 c 0,0.116 0.0031,0.2071 0.0092,0.273 0.0062,0.066 0.0233,0.1227 0.0515,0.1702 0.0281,0.0493 0.0686,0.0893 0.1213,0.1201 0.0528,0.0308 0.1117,0.0462 0.1768,0.0462 0.0915,0 0.1742,-0.0343 0.248,-0.103 0.0493,-0.0457 0.0805,-0.1015 0.0937,-0.1675 0.0132,-0.066 0.0198,-0.1596 0.0198,-0.281 V 8.3654 h 0.2638 c 0.1021,0 0.1799,-0.0242 0.2336,-0.0725 0.0536,-0.0484 0.0804,-0.1104 0.0804,-0.186 0,-0.0968 -0.0382,-0.1645 -0.1148,-0.2032 C 57.9844,7.865 57.8749,7.8456 57.7325,7.8456 H 57.5979 V 6.5211 c 0,-0.1126 0.0039,-0.1992 0.0119,-0.2599 0.0079,-0.0607 0.029,-0.1099 0.0633,-0.1477 0.0343,-0.0379 0.0901,-0.0568 0.1675,-0.0568 0.0422,0 0.0994,0.0075 0.1715,0.0225 0.0722,0.0149 0.1284,0.0224 0.1689,0.0224 0.0581,0 0.1104,-0.0233 0.157,-0.0699 0.0466,-0.0467 0.0699,-0.1043 0.0699,-0.1729 0,-0.1161 -0.0633,-0.2049 -0.19,-0.2665 C 58.0913,5.5308 57.9092,5.5 57.6718,5.5 57.4466,5.5 57.276,5.5378 57.1599,5.6135 57.0438,5.6891 56.9677,5.7938 56.9317,5.9274 56.8956,6.0611 56.8776,6.2397 56.8776,6.4631 v 1.3825 h -0.095 c -0.1038,0 -0.183,0.0247 -0.2375,0.0739 -0.0545,0.0493 -0.0818,0.1117 -0.0818,0.1874 0,0.0756 0.0286,0.1376 0.0858,0.186 0.0571,0.0483 0.1403,0.0725 0.2493,0.0725 M 60.4918,5.9063 C 60.3177,5.7709 60.1493,5.6693 59.9865,5.6016 59.8238,5.5339 59.6413,5.5 59.4391,5.5 c -0.1847,0 -0.347,0.0365 -0.4869,0.1095 -0.1398,0.073 -0.2475,0.1719 -0.3232,0.2968 -0.0756,0.1249 -0.1134,0.2604 -0.1134,0.4064 0,0.197 0.0624,0.365 0.1873,0.5039 0.1249,0.139 0.2964,0.2322 0.5145,0.2797 0.0457,0.0106 0.1592,0.0343 0.3404,0.0712 0.1812,0.037 0.3364,0.0708 0.4657,0.1016 0.1293,0.0308 0.2696,0.0682 0.4208,0.1122 -0.0088,0.1899 -0.047,0.3293 -0.1147,0.4182 -0.0678,0.0888 -0.2081,0.1332 -0.4209,0.1332 -0.1829,0 -0.3206,-0.0255 -0.4129,-0.0765 C 59.4034,7.8052 59.3243,7.7287 59.2583,7.6266 59.1923,7.5246 59.1457,7.4573 59.1185,7.4248 59.0912,7.3923 59.0327,7.376 58.943,7.376 c -0.0809,0 -0.1508,0.0259 -0.2098,0.0778 -0.0589,0.0519 -0.0883,0.1183 -0.0883,0.1992 0,0.1267 0.0448,0.2498 0.1345,0.3694 0.0897,0.1196 0.2296,0.2181 0.4195,0.2955 0.19,0.0774 0.4266,0.1161 0.7098,0.1161 0.3166,0 0.5655,-0.0373 0.7467,-0.1121 0.1812,-0.0748 0.3092,-0.1931 0.3839,-0.3549 0.0748,-0.1618 0.1122,-0.3764 0.1122,-0.6438 0,-0.1688 -5e-4,-0.3122 -0.0014,-0.4301 -8e-4,-0.1178 -0.0022,-0.2489 -0.0039,-0.3931 0,-0.1354 0.0224,-0.2766 0.0673,-0.4235 C 61.2583,5.9296 61.2807,5.8351 61.2807,5.7929 61.2807,5.719 61.246,5.6517 61.1765,5.591 61.107,5.5303 61.0283,5.5 60.9404,5.5 c -0.0739,0 -0.1469,0.0347 -0.219,0.1042 -0.0721,0.0695 -0.1487,0.1702 -0.2296,0.3021 M 60.4443,6.9485 C 60.3388,6.9099 60.1853,6.869 59.9839,6.8259 59.7825,6.7828 59.6431,6.7511 59.5657,6.7309 59.4883,6.7106 59.4144,6.6711 59.3441,6.6121 59.2737,6.5532 59.2385,6.471 59.2385,6.3654 c 0,-0.109 0.0414,-0.2018 0.124,-0.2783 0.0827,-0.0765 0.1909,-0.1148 0.3246,-0.1148 0.1425,0 0.2739,0.0312 0.3944,0.0937 0.1205,0.0624 0.2089,0.1429 0.2652,0.2414 0.0651,0.109 0.0976,0.2885 0.0976,0.5382 z m 2.1028,2.1399 V 7.9881 c 0.1355,0.1407 0.2736,0.2485 0.4143,0.3232 0.1407,0.0748 0.3148,0.1122 0.5224,0.1122 0.2392,0 0.449,-0.0567 0.6293,-0.1702 0.1803,-0.1135 0.3201,-0.2779 0.4195,-0.4934 0.0994,-0.2155 0.1491,-0.471 0.1491,-0.7665 0,-0.2181 -0.0277,-0.4182 -0.0831,-0.6003 C 64.5432,6.2111 64.4627,6.0532 64.3572,5.9195 64.2516,5.7858 64.1236,5.6825 63.9732,5.6095 63.8228,5.5365 63.6571,5.5 63.4759,5.5 63.3651,5.5 63.2608,5.5132 63.1632,5.5396 63.0656,5.566 62.9825,5.6007 62.9139,5.6438 62.8453,5.6869 62.7868,5.7313 62.7384,5.777 62.69,5.8228 62.6263,5.8914 62.5471,5.9828 V 5.9116 c 0,-0.1354 -0.0325,-0.2379 -0.0976,-0.3074 C 62.3844,5.5347 62.3017,5.5 62.2015,5.5 c -0.102,0 -0.1834,0.0347 -0.2441,0.1042 -0.0607,0.0695 -0.091,0.172 -0.091,0.3074 v 3.1451 c 0,0.146 0.0294,0.2564 0.0884,0.3312 0.0589,0.0747 0.1411,0.1121 0.2467,0.1121 0.1108,0 0.1961,-0.0356 0.2559,-0.1069 0.0598,-0.0712 0.0897,-0.1728 0.0897,-0.3047 m 0.0343,-2.1399 c 0,-0.2867 0.0655,-0.507 0.1966,-0.6609 0.131,-0.1539 0.303,-0.2309 0.5158,-0.2309 0.1812,0 0.3373,0.0787 0.4684,0.2362 0.131,0.1574 0.1965,0.383 0.1965,0.6768 0,0.1899 -0.0272,0.3535 -0.0818,0.4907 -0.0545,0.1372 -0.1319,0.2432 -0.2322,0.318 -0.1002,0.0747 -0.2172,0.1121 -0.3509,0.1121 -0.1372,0 -0.2594,-0.0374 -0.3667,-0.1121 C 62.8198,7.7036 62.7353,7.5954 62.6738,7.4538 62.6122,7.3122 62.5814,7.1438 62.5814,6.9485 M 65.2595,5.938 v 3.124 c 0,0.1442 0.0321,0.2533 0.0963,0.3272 C 65.42,9.4631 65.5067,9.5 65.6157,9.5 c 0.1091,0 0.197,-0.0365 0.2639,-0.1095 0.0668,-0.073 0.1002,-0.1825 0.1002,-0.3285 V 5.938 C 65.9798,5.792 65.946,5.6825 65.8783,5.6095 65.8105,5.5365 65.723,5.5 65.6157,5.5 c -0.1055,0 -0.1913,0.0378 -0.2572,0.1135 -0.066,0.0756 -0.099,0.1838 -0.099,0.3245 m 3.4746,0.8496 h -1.4089 c 0.0017,-0.1636 0.0347,-0.3078 0.0989,-0.4327 0.0642,-0.1249 0.1495,-0.219 0.256,-0.2823 0.1064,-0.0634 0.2238,-0.095 0.3522,-0.095 0.0862,0 0.1649,0.0101 0.2361,0.0303 0.0713,0.0202 0.1403,0.0519 0.2072,0.095 0.0668,0.0431 0.1284,0.0893 0.1847,0.1385 0.0563,0.0493 0.1293,0.1161 0.219,0.2006 0.0369,0.0316 0.0897,0.0474 0.1583,0.0474 0.0739,0 0.1337,-0.0202 0.1794,-0.0606 0.0457,-0.0405 0.0686,-0.0977 0.0686,-0.1715 0,-0.0651 -0.0255,-0.1412 -0.0765,-0.2283 C 69.1581,5.942 69.0811,5.8584 68.9782,5.7784 68.8753,5.6983 68.746,5.6319 68.5903,5.5792 68.4347,5.5264 68.2557,5.5 68.0534,5.5 c -0.4626,0 -0.8223,0.1319 -1.0792,0.3958 -0.2568,0.2638 -0.3852,0.6218 -0.3852,1.0739 0,0.2128 0.0317,0.4102 0.095,0.5923 0.0633,0.1821 0.1557,0.3382 0.2771,0.4683 0.1213,0.1302 0.2708,0.23 0.4485,0.2995 0.1777,0.0695 0.3747,0.1042 0.591,0.1042 0.2815,0 0.5229,-0.0593 0.7243,-0.1781 0.2014,-0.1187 0.3523,-0.2722 0.4525,-0.4604 0.1003,-0.1882 0.1504,-0.3799 0.1504,-0.5752 0,-0.1812 -0.0519,-0.2986 -0.1557,-0.3522 -0.1037,-0.0537 -0.2497,-0.0805 -0.438,-0.0805 m -1.4089,0.409 h 1.306 c -0.0176,0.2462 -0.084,0.4305 -0.1992,0.5527 -0.1152,0.1223 -0.2669,0.1834 -0.4551,0.1834 -0.1794,0 -0.3268,-0.062 -0.442,-0.186 -0.1152,-0.124 -0.1851,-0.3074 -0.2097,-0.5501"
           inkscape:connector-curvature="0" />
      </g>
    </g>
  </g>
</svg>
